<svg xmlns="http://www.w3.org/2000/svg" viewBox="0 0 48 48" id="java-script">
  <g>
    <path fill="#42a5f5" d="M43 11c0-.5.36.13-8.21-10.58C34.49-.2 35.67 0 6 0a1 1 0 0 0-1 1v46a1 1 0 0 0 1 1h36a1 1 0 0 0 1-1V11Zm-2 35H7V2h26v7a3 3 0 0 0 3 3h5Z"></path>
    <path fill="#42a5f5" d="M21 31v6a1 1 0 0 1-2 0v-1a1 1 0 0 0-2 0v1a3 3 0 0 0 6 0v-6a1 1 0 0 0-2 0zm7 3a1 1 0 1 1 1-1 1 1 0 0 0 1 1c1.91 0 1-4-2-4a3 3 0 0 0 0 6 1 1 0 1 1-1 1 1 1 0 0 0-1-1c-1.91 0-1 4 2 4a3 3 0 0 0 0-6z"></path>
    <path fill="#424242" d="M33 44H15a3 3 0 0 1-3-3V29a3 3 0 0 1 3-3h18a3 3 0 0 1 3 3v12a3 3 0 0 1-3 3ZM15 28a1 1 0 0 0-1 1v12a1 1 0 0 0 1 1h18a1 1 0 0 0 1-1V29a1 1 0 0 0-1-1Z"></path>
    <path fill="#42a5f5" d="M11 6a1 1 0 0 1-2 0 1 1 0 0 1 2 0Z"></path>
    <path fill="#424242" d="M18 7h-4a1 1 0 0 1 0-2h4a1 1 0 0 1 0 2Z"></path>
    <path fill="#42a5f5" d="M11 10a1 1 0 0 1-2 0 1 1 0 0 1 2 0Z"></path>
    <path fill="#424242" d="M24 11H14a1 1 0 0 1 0-2h10a1 1 0 0 1 0 2Z"></path>
    <path fill="#42a5f5" d="M11 22a1 1 0 0 1-2 0 1 1 0 0 1 2 0Z"></path>
    <path fill="#424242" d="M18 23h-4a1 1 0 0 1 0-2h4a1 1 0 0 1 0 2zm6 0h-2a1 1 0 0 1 0-2h2a1 1 0 0 1 0 2zm-4-4h-2a1 1 0 0 1 0-2h2a1 1 0 0 1 0 2zm12 0h-8a1 1 0 0 1 0-2h8a1 1 0 0 1 0 2z"></path>
    <path fill="#42a5f5" d="M15 14a1 1 0 0 1-2 0 1 1 0 0 1 2 0Z"></path>
    <path fill="#424242" d="M30 15H18a1 1 0 0 1 0-2h12a1 1 0 0 1 0 2Z"></path>
    <path fill="#42a5f5" d="M15 18a1 1 0 0 1-2 0 1 1 0 0 1 2 0Z"></path>
  </g>
</svg>
